<svg width="15" height="16" viewBox="0 0 15 16" fill="none" xmlns="http://www.w3.org/2000/svg">
<path fill-rule="evenodd" clip-rule="evenodd" d="M10.9375 6.99066C10.9375 7.5816 10.8211 8.16677 10.5949 8.71273C10.3688 9.2587 10.0373 9.75477 9.6195 10.1727C9.2016 10.5905 8.70553 10.922 8.15956 11.1482C7.6136 11.3743 7.02844 11.4907 6.43749 11.4907C5.84654 11.4907 5.26138 11.3743 4.71541 11.1482C4.16945 10.922 3.67337 10.5905 3.25551 10.1727C2.83764 9.75477 2.50618 9.2587 2.28003 8.71273C2.05388 8.16677 1.93749 7.5816 1.93749 6.99066C1.93749 5.79718 2.41159 4.65259 3.25551 3.80868C4.09942 2.96476 5.24401 2.49066 6.43749 2.49066C7.63096 2.49066 8.77555 2.96476 9.6195 3.80868C10.4634 4.65259 10.9375 5.79718 10.9375 6.99066ZM10.1175 11.7307C8.91187 12.6667 7.39486 13.108 5.87529 12.9648C4.35572 12.8217 2.94783 12.1048 1.93824 10.9601C0.928643 9.81536 0.393243 8.32895 0.441023 6.80341C0.488813 5.27786 1.11619 3.82786 2.19544 2.74861C3.2747 1.66936 4.72469 1.04198 6.25024 0.994185C7.77579 0.946402 9.2622 1.48181 10.4069 2.49141C11.5516 3.501 12.2685 4.90889 12.4116 6.42846C12.5548 7.94802 12.1135 9.46502 11.1775 10.6707L14.2175 13.7107C14.2912 13.7794 14.3503 13.8622 14.3913 13.9542C14.4323 14.0462 14.4543 14.1455 14.4561 14.2462C14.4579 14.3469 14.4393 14.4469 14.4016 14.5403C14.3639 14.6337 14.3077 14.7185 14.2365 14.7897C14.1653 14.861 14.0805 14.9171 13.9871 14.9548C13.8937 14.9925 13.7937 15.0111 13.693 15.0093C13.5923 15.0075 13.4929 14.9855 13.401 14.9445C13.309 14.9035 13.2262 14.8444 13.1575 14.7707L10.1175 11.7307Z" fill="#1F2A33"/>
</svg>
